<svg xmlns="http://www.w3.org/2000/svg" viewBox="0 0 700 240" width="100%" height="100%">
  <g fill="#24184a">
    <!-- Stylized 'B' with Leaf -->
    <path d="M 50 30 L 70 30 C 100 30 115 45 115 65 C 115 80 105 92 90 97 C 110 102 122 118 122 138 C 122 165 98 180 65 180 L 50 180 Z M 70 52 L 70 93 C 85 93 94 85 94 73 C 94 60 85 52 70 52 Z M 70 112 L 70 158 C 88 158 99 148 99 135 C 99 122 88 112 70 112 Z" />
    <path d="M 42 98 C 15 98 5 125 5 152 C 25 152 48 135 48 108 C 48 101 45 98 42 98 Z" />
    <!-- Text Elements -->
    <text x="130" y="165" font-family="'Didot', 'Bodoni MT', 'Cinzel', serif" font-size="120" font-weight="700" letter-spacing="-2">lue</text>
    <text x="270" y="165" font-family="'Didot', 'Bodoni MT', 'Cinzel', serif" font-size="120" font-weight="700" letter-spacing="-1">berries</text>
    <!-- Accent Leaf on i -->
    <path d="M 515 88 C 500 88 490 102 490 118 C 505 118 522 108 522 93 C 522 89 519 88 515 88 Z" />
    <!-- Subtitle -->
    <text x="365" y="215" text-anchor="middle" font-family="'Montserrat', 'Helvetica Neue', sans-serif" font-size="24" font-weight="600" letter-spacing="18">HOTEL</text>
  </g>
</svg>
