<svg xmlns="http://www.w3.org/2000/svg" viewBox="0 0 450 200" width="100%" height="100%">
  <!-- Crest Icon -->
  <g transform="translate(10, 20)">
    <path d="M 50 10 C 85 10 95 35 95 70 C 95 105 70 135 50 145 C 30 135 5 105 5 70 C 5 35 15 10 50 10 Z" fill="#0000C8" />
    <path d="M 45 35 H 55 V 130 H 45 Z M 15 65 H 85 V 75 H 15 Z" fill="#FFFFFF" />
    <text x="30" y="60" font-family="sans-serif" font-size="18" font-weight="900" fill="#FFFFFF" text-anchor="middle">S</text>
    <text x="70" y="60" font-family="sans-serif" font-size="18" font-weight="900" fill="#FFFFFF" text-anchor="middle">J</text>
    <text x="30" y="105" font-family="sans-serif" font-size="18" font-weight="900" fill="#FFFFFF" text-anchor="middle">H</text>
    <text x="70" y="105" font-family="sans-serif" font-size="18" font-weight="900" fill="#FFFFFF" text-anchor="middle">W</text>
  </g>
  <!-- Text Box Header -->
  <rect x="130" y="32" width="280" height="75" fill="#00A2E8" />
  <text x="140" y="58" font-family="sans-serif" font-size="20" font-weight="700" fill="#FFFFFF">Baby-friendly</text>
  <text x="140" y="80" font-family="sans-serif" font-size="20" font-weight="700" fill="#FFFFFF">Hospital</text>
  <text x="140" y="100" font-family="sans-serif" font-size="18" font-weight="700" fill="#FFFFFF">Initiative</text>
  <text x="130" y="125" font-family="sans-serif" font-size="18" font-weight="900" fill="#00A2E8" letter-spacing="3">ACCREDITATION</text>
  <!-- Base Banner -->
  <rect x="10" y="138" width="400" height="28" fill="#0047AB" />
  <text x="210" y="157" text-anchor="middle" font-family="sans-serif" font-size="13" font-weight="800" fill="#FFFFFF" letter-spacing="1">ST. JOSEPH'S HOSPITAL, WAKISO</text>
</svg>
